Coordinates
version=1
nRows=8
nColumns=36
inDegrees=yes

Units are S.I. units (second, meters, Newtons, ...)
If the header above contains a line with 'inDegrees', this indicates whether rotational values are in degrees (yes) or radians (no).

endheader
time	pelvis_tilt	pelvis_list	pelvis_rotation	pelvis_tx	pelvis_ty	pelvis_tz	hip_flexion_r	hip_adduction_r	hip_rotation_r	knee_angle_r	knee_angle_r_beta	ankle_angle_r	subtalar_angle_r	mtp_angle_r	hip_flexion_l	hip_adduction_l	hip_rotation_l	knee_angle_l	knee_angle_l_beta	ankle_angle_l	subtalar_angle_l	mtp_angle_l	lumbar_extension	lumbar_bending	lumbar_rotation	arm_flex_r	arm_add_r	arm_rot_r	elbow_flex_r	pro_sup_r	arm_flex_l	arm_add_l	arm_rot_l	elbow_flex_l	pro_sup_l
      3.55932200	    -13.65349617	      0.27406088	     -1.89870291	     -1.08115254	      1.32508206	     -0.05612398	     23.12174650	      1.49354654	      2.83897359	     15.61866585	      0.27259714	      3.02253177	    -16.63851295	     -7.49999987	     20.97198296	     -0.66675180	      3.78163669	     10.78182806	      0.18817840	      3.17751423	    -10.20318467	     -7.49999987	    -14.99889841	     -1.31288703	     -0.89048151	    -14.75883220	    -13.06568426	     -4.36372115	     39.47066803	     84.46293178	     -9.81744458	    -11.26744350	      1.41149068	     32.78863060	     86.84312893
      3.57627120	    -14.64124718	      0.28112181	     -1.51080475	     -1.08008452	      1.32348765	     -0.05716280	     24.72205860	      1.42933211	      2.72287939	     16.86465117	      0.29434369	      3.49478120	    -17.07422908	     -7.49999987	     22.28266162	     -0.55794024	      3.94570448	     11.18285026	      0.19517756	      3.43259028	     -9.86957883	     -7.49999987	    -15.47073990	     -1.60728366	     -0.79336500	    -15.95173643	    -13.73017575	     -4.71713999	     39.62906922	     83.26955782	    -10.26988350	    -11.40967588	      0.75599733	     31.75576922	     84.76024085
      3.59322030	    -15.77381974	      0.41419373	     -1.16794974	     -1.08575734	      1.32182497	     -0.06078059	     26.77978682	      1.20137549	      2.79202500	     18.48273881	      0.32258465	      3.99672834	    -18.06206424	     -7.49999987	     23.88155937	     -0.24412502	      4.08325121	     11.63235504	      0.20302290	      3.50862037	     -9.60950839	     -7.49999987	    -16.20091960	     -2.02587330	     -0.75639681	    -17.02452962	    -14.49845934	     -4.92655503	     40.36466422	     83.53369003	    -10.56370723	    -11.62160892	      0.42816599	     31.65895481	     84.43424961
      3.61016950	    -16.87140636	      0.41290548	     -0.88675506	     -1.08433968	      1.31617358	     -0.06164503	     28.77021761	      1.13133905	      2.80175862	     20.05903772	      0.35009625	      4.83677670	    -18.37971054	     -7.49999987	     25.40931449	     -0.10127942	      4.18231932	     12.10141206	      0.21120948	      3.97969815	     -9.05233728	     -7.49999987	    -17.05812857	     -2.27099648	     -0.82007719	    -18.51454610	    -15.23178950	     -5.05466010	     42.12290465	     81.51756136	    -11.61296955	    -11.90757544	      0.25535337	     33.38065934	     82.23833572
      3.62711860	    -17.42496465	      0.43706056	     -0.64489962	     -1.08436248	      1.31194705	     -0.06064530	     30.17884367	      1.14973854	      3.04281340	     21.55954429	      0.37628503	      4.82559330	    -19.97083416	     -7.49999987	     26.20181493	     -0.00232593	      4.26096468	     12.27772838	      0.21428678	      4.03565665	     -8.89191116	     -7.49999987	    -18.32171202	     -2.64961733	     -0.32184240	    -19.49171856	    -15.55454587	     -5.16440076	     41.77041878	     81.75614541	    -10.96536662	    -11.76374843	     -1.02416427	     31.37586272	     80.11236459
      3.64406780	    -18.01920367	      0.46796451	     -0.38689774	     -1.08978384	      1.31140871	     -0.06605954	     31.80642998	      1.01179163	      3.05904350	     23.17437276	      0.40446911	      5.21481102	    -20.85056107	     -7.49999987	     27.37711143	      0.23191608	      4.23682274	     12.94440387	      0.22592247	      4.17335353	     -8.79562436	     -7.49999987	    -19.88741541	     -2.96382641	     -0.11454357	    -20.28243044	    -15.91694182	     -5.32616055	     41.62185603	     81.90856689	    -10.93123028	    -11.91144359	     -1.52106882	     31.25608855	     79.81890163
      3.66101700	    -18.83311201	      0.51684717	     -0.30108323	     -1.08953116	      1.30987679	     -0.06524606	     33.47446913	      1.01673713	      3.36348518	     24.43462096	      0.42646459	      5.14554123	    -21.90635748	     -7.49999987	     28.66557058	      0.32244736	      3.96218802	     13.45300571	      0.23479924	      4.16607701	     -8.34086914	     -7.49999987	    -21.02140541	     -3.26947978	     -0.04520606	    -21.12033143	    -15.90257745	     -5.87633514	     41.80598317	     80.79254232	    -10.98699098	    -11.89811767	     -3.04836256	     30.40868172	     77.47120055
      3.67796610	    -19.72520768	      0.66881281	     -0.35740984	     -1.09535664	      1.30782657	     -0.07036738	     35.37916886	      0.79601941	      3.48479715	     25.71796930	      0.44886324	      5.23265448	    -22.35052002	     -7.49999987	     30.19612520	      0.58251200	      3.53374591	     14.22146534	      0.24821139	      4.25684567	     -8.07846657	     -7.49999987	    -22.20795598	     -3.48546992	     -0.18061018	    -21.14272803	    -15.99821004	     -6.22332476	     41.53711971	     81.27371174	    -10.59646890	    -11.88575025	     -3.99863840	     29.12006623	     76.70744080
